# xmcd CD database file
#
# Track frame offsets:
#	150
#	15135
#	44410
#	67917
#
# Disc length: 1189 seconds
#
# Revision: 0
# Processed by: cddbd v1.4PL0 Copyright (c) Steve Scherf et al.
# Submitted via: CDex 1.50beta10
#
DISCID=2304a304
DTITLE=Velvet Colors - let me hold your heart
DYEAR=1996
DGENRE=Jazz
TTITLE0=let me hold your heart (radio edit)
TTITLE1=calling you
TTITLE2=the color blue
TTITLE3=let me hold your heart [CD version)
EXTD=YEAR: 1996
EXTT0=
EXTT1=
EXTT2=
EXTT3=
PLAYORDER=
